# xmcd
#
# Track frame offsets: 
#        150
#        17922
#        36101
#        50408
#        68051
#        81511
#        97597
#        115445
#        131905
#        151219
#        175609
#
# Disc length: 3587 seconds
#
# Revision: 0
# Processed by: cddbd v1.5.2PL0 Copyright (c) Steve Scherf et al.
# Submitted via: ExactAudioCopy v0.95a5
#
DISCID=890e010b
DTITLE=Melonie Cannon - Melonie Cannon
DYEAR=2004
DGENRE=Country
TTITLE0=Nothin' to Lose
TTITLE1=Tennessee Roads
TTITLE2=I Feel You Everywhere
TTITLE3=What Took You So Long
TTITLE4=Westbound Trains
TTITLE5=Sweeter Than Sugarcane
TTITLE6=Whiskey Lullabye
TTITLE7=Separate Ways
TTITLE8=I'll Be Back
TTITLE9=Nobody Hops a Train Anymore
TTITLE10=Daten
EXTD=
EXTT0=
EXTT1=
EXTT2=
EXTT3=
EXTT4=
EXTT5=
EXTT6=
EXTT7=
EXTT8=
EXTT9=
EXTT10=
PLAYORDER=
